<?xml version="1.0" encoding="UTF-8"?>
<svg id="Camada_1" data-name="Camada 1" xmlns="http://www.w3.org/2000/svg" viewBox="0 0 1920 1080">
  <defs>
    <style>
      .cls-1 {
        fill: #d3ab32;
      }

      .cls-2 {
        fill: #d08c32;
      }
    </style>
  </defs>
  <rect class="cls-2" x="-.12" y="-.07" width="1920.25" height="1080.14"/>
  <g>
    <path class="cls-1" d="M759.12,717.83v-288.65c0-33.33-27.02-60.35-60.35-60.35v292.83c0,60.66,49.17,109.83,109.83,109.83h4.19c-14.81,0-28.23-6-37.94-15.71-9.71-9.71-15.73-23.15-15.73-37.96Z"/>
    <path class="cls-1" d="M648.11,309.34c0-.28.04-.56.04-.85h-157.25c-60.66,0-109.84,49.18-109.84,109.84v4.14c0-14.82,6-28.2,15.72-37.92,9.72-9.72,23.16-15.72,37.98-15.72h153.01c3.33,0,6.58-.34,9.77-.86v.87h101.25c0-30.03-21.95-54.86-50.67-59.5Z"/>
    <path class="cls-1" d="M816.98,771.51c.91,0,1.78-.11,2.68-.14-2.26.1-4.55.14-6.87.14h4.19Z"/>
    <path class="cls-1" d="M381.11,427.79c-.05-1.75-.05-3.51-.05-5.31v4.2c0,.37,0,.74.05,1.12Z"/>
    <path class="cls-1" d="M1019.09,507.21c-.85-4.39-2.23-8.91-3.46-12.57-4.62-13.71-12.81-26.74-22.11-37.73-9.55-11.27-21.01-20.91-33.76-28.37s-25.36-12.2-39.13-14.84c-42.49-8.14-88.75,7.44-117.66,39.63-28.91,32.19-39.44,79.86-26.79,121.23,12.65,41.38,48.04,75,90.01,85.52-2.34,21.22.17,42.9-3.83,63.87s-16.92,42.45-37.7,47.35c24.89-1.86,49.04-12.51,67.2-29.63,18.16-17.13,30.2-40.61,33.51-65.36.7-5.27,1.25-11.08,5.08-14.77,2.16-2.09,5.08-3.16,7.87-4.28,13.48-5.39,25.92-13.22,36.8-22.81s20.34-21.08,27.78-33.64c7.44-12.55,12.96-26.26,16.14-40.51,3.31-14.84,3.98-29.97,1.6-44.97-.43-2.69-.94-5.36-1.55-8.02M896.58,604.19h-1.13c-.69,0-1.33-.05-2.02-.05-.64,0-1.33-.06-1.96-.06-8.5-.47-16.26-2.17-23.22-5.15-8.18-3.5-15.19-8.28-21.03-14.29-4.83-4.94-8.71-10.67-11.74-17.1-.63-1.38-1.22-2.76-1.8-4.2-3.14-8.18-4.73-16.94-4.73-26.29s1.59-17.58,4.73-25.6c.53-1.27,1.11-2.55,1.7-3.82,2.97-6.43,6.95-12.17,11.84-17.21,5.84-6,12.85-10.73,21.03-14.24,7.11-3.05,14.95-4.74,23.62-5.19.42,0,.84-.01,1.26-.02.77-.02,1.54-.05,2.32-.05.13,0,.24-.02.37,0,.16-.02.31-.02.44-.02h.32c10.16.07,19.36,1.81,27.58,5.26,8.34,3.5,15.43,8.27,21.28,14.27,4.89,5.04,8.85,10.76,11.85,17.2.61,1.26,1.15,2.54,1.68,3.84,3.19,8.03,4.76,16.55,4.76,25.57s-1.57,18.12-4.76,26.31c-.55,1.44-1.16,2.83-1.81,4.18-2.98,6.46-6.89,12.15-11.72,17.11-5.85,6.02-12.94,10.79-21.28,14.29-8.2,3.42-17.38,5.18-27.52,5.26h-.06Z"/>
    <path class="cls-1" d="M652.5,442.67c-10.89-10.2-23.85-18.11-38.93-23.64-15.08-5.52-31.87-8.29-50.3-8.29-17.42,0-33.94,3.13-49.56,9.3-15.56,6.21-29.05,14.93-40.47,26.13-11.37,11.26-20.45,24.64-27.14,40.26-.42.96-.74,1.91-1.17,2.87-50.46-9.72-61.13-35.43-63.37-54.6,2.6,37.5,23.95,75.42,54.6,97.09-.05,1.86-.11,3.77-.11,5.68,0,18.43,3.35,35.37,10.04,50.78,6.69,15.4,15.77,28.73,27.14,39.94,11.42,11.26,24.91,19.97,40.47,26.19,15.62,6.16,32.13,9.3,49.56,9.3,14.77,0,29-2.28,42.76-6.8,13.7-4.51,26.19-10.78,37.45-18.86,11.21-8.02,20.66-17.74,28.42-29.16,7.7-11.42,12.54-23.95,14.55-37.71h-64.32c-5.42,10.73-13.33,19.02-23.9,24.91-10.57,5.84-22.2,8.76-34.95,8.76-16.41,0-30.75-4.67-42.97-14.08-12.27-9.35-19.86-22.25-22.89-38.72h191.05v-23.1c-.32-18.11-3.67-34.47-10.04-49.02-6.37-14.61-15.03-26.98-25.92-37.23ZM503.41,504.28c5.74-10.73,13.86-19.17,24.43-25.39,10.52-6.21,22.36-9.3,35.43-9.3s24.06,3.08,33.94,9.3c9.88,6.21,17.37,14.66,22.36,25.39h-116.16Z"/>
    <path class="cls-1" d="M1065.52,520.82h4.9l8.8,15.22h9.26l-9.33-16.15c3.04-.93,5.43-2.45,7.15-4.57,1.72-2.12,2.58-4.7,2.58-7.74,0-1.94-.37-3.72-1.13-5.33-.75-1.61-1.83-3-3.24-4.17s-3.12-2.09-5.13-2.75c-2.01-.66-4.27-.99-6.78-.99h-15.02v41.69h7.94v-15.22ZM1065.52,501.62h6.75c2.77,0,4.86.53,6.25,1.59,1.39,1.06,2.09,2.51,2.09,4.37s-.7,3.31-2.09,4.37c-1.39,1.06-3.48,1.59-6.25,1.59h-6.75v-11.91Z"/>
    <path class="cls-1" d="M1089.54,526.64c.88,2.03,2.07,3.78,3.57,5.26,1.5,1.48,3.27,2.62,5.33,3.44,2.05.82,4.22,1.22,6.51,1.22,1.95,0,3.82-.3,5.63-.89,1.81-.6,3.45-1.42,4.93-2.48,1.48-1.06,2.73-2.34,3.74-3.84,1.02-1.5,1.65-3.15,1.92-4.96h-8.47c-.71,1.41-1.75,2.51-3.14,3.28-1.39.77-2.92,1.16-4.6,1.16-2.16,0-4.05-.62-5.65-1.85-1.61-1.23-2.61-2.93-3.01-5.1h25.15v-3.04c-.04-2.38-.48-4.53-1.32-6.45-.84-1.92-1.98-3.55-3.41-4.9-1.43-1.34-3.14-2.38-5.13-3.11-1.98-.73-4.19-1.09-6.62-1.09-2.29,0-4.47.41-6.51,1.22-2.05.82-3.83,1.96-5.33,3.44-1.5,1.48-2.69,3.24-3.57,5.29s-1.32,4.29-1.32,6.72.44,4.66,1.32,6.69ZM1100.29,512.25c1.39-.82,2.95-1.22,4.66-1.22s3.17.41,4.47,1.22c1.3.82,2.28,1.93,2.94,3.34h-15.29c.75-1.41,1.82-2.52,3.21-3.34Z"/>
    <path class="cls-1" d="M1116.54,545.3c4.67,0,8.29-1.19,10.85-3.57,2.56-2.38,3.84-5.76,3.84-10.12v-27.99h-7.94v27.99c0,2.25-.5,3.83-1.49,4.73-.99.9-2.75,1.36-5.26,1.36v7.61Z"/>
    <path class="cls-1" d="M1127.26,502.55c1.19,0,2.21-.43,3.04-1.29.84-.86,1.26-1.89,1.26-3.08s-.42-2.22-1.26-3.08c-.83-.86-1.85-1.29-3.04-1.29s-2.21.43-3.08,1.29c-.86.86-1.29,1.89-1.29,3.08s.43,2.22,1.29,3.08c.86.86,1.89,1.29,3.08,1.29Z"/>
    <path class="cls-1" d="M1136.66,532.69c1.15,1.21,2.52,2.16,4.1,2.85,1.59.68,3.33,1.02,5.23,1.02,2.2,0,4.19-.42,5.95-1.26,1.76-.84,3.33-2.03,4.7-3.57l.86,4.3h6.95v-32.43h-7.94v20.51c-.66.88-1.44,1.68-2.32,2.38-.75.62-1.68,1.18-2.78,1.69-1.1.51-2.36.76-3.77.76-2.2,0-3.89-.62-5.03-1.85-1.15-1.23-1.72-3.24-1.72-6.02v-17.47h-7.88v19.39c0,1.94.32,3.74.96,5.39.64,1.65,1.54,3.09,2.68,4.3Z"/>
    <polygon class="cls-1" points="1185.83 536.04 1199.59 503.61 1191.32 503.61 1182.52 524.46 1173.72 503.61 1165.45 503.61 1179.21 536.04 1185.83 536.04"/>
    <path class="cls-1" d="M1225.44,507.48c-1.43-1.34-3.14-2.38-5.13-3.11-1.98-.73-4.19-1.09-6.62-1.09-2.29,0-4.47.41-6.51,1.22-2.05.82-3.83,1.96-5.33,3.44-1.5,1.48-2.69,3.24-3.57,5.29s-1.32,4.29-1.32,6.72.44,4.66,1.32,6.69c.88,2.03,2.07,3.78,3.57,5.26,1.5,1.48,3.27,2.62,5.33,3.44,2.05.82,4.22,1.22,6.51,1.22,1.95,0,3.82-.3,5.63-.89,1.81-.6,3.45-1.42,4.93-2.48,1.48-1.06,2.73-2.34,3.74-3.84,1.02-1.5,1.65-3.15,1.92-4.96h-8.47c-.71,1.41-1.75,2.51-3.14,3.28-1.39.77-2.92,1.16-4.6,1.16-2.16,0-4.05-.62-5.65-1.85-1.61-1.23-2.61-2.93-3.01-5.1h25.15v-3.04c-.04-2.38-.48-4.53-1.32-6.45-.84-1.92-1.98-3.55-3.41-4.9ZM1205.81,515.59c.75-1.41,1.82-2.52,3.21-3.34,1.39-.82,2.95-1.22,4.66-1.22s3.17.41,4.47,1.22c1.3.82,2.28,1.93,2.94,3.34h-15.29Z"/>
    <path class="cls-1" d="M1259.28,507.15c-1.15-1.21-2.52-2.16-4.1-2.85-1.59-.68-3.33-1.03-5.23-1.03-4.32,0-7.83,1.55-10.52,4.63l-.66-4.3h-7.28v32.43h7.94v-20.51c.66-.88,1.43-1.65,2.31-2.32.75-.62,1.68-1.16,2.78-1.62,1.1-.46,2.36-.69,3.77-.69,2.2,0,3.89.63,5.03,1.89,1.15,1.26,1.72,3.28,1.72,6.06v17.21h7.87v-19.19c0-1.94-.32-3.74-.96-5.39-.64-1.65-1.54-3.09-2.68-4.3Z"/>
    <path class="cls-1" d="M1292.8,507.48c-1.43-1.34-3.14-2.38-5.13-3.11-1.98-.73-4.19-1.09-6.62-1.09-2.29,0-4.47.41-6.51,1.22-2.05.82-3.83,1.96-5.33,3.44-1.5,1.48-2.69,3.24-3.57,5.29s-1.32,4.29-1.32,6.72.44,4.66,1.32,6.69c.88,2.03,2.07,3.78,3.57,5.26,1.5,1.48,3.27,2.62,5.33,3.44,2.05.82,4.22,1.22,6.51,1.22,1.95,0,3.82-.3,5.63-.89,1.81-.6,3.45-1.42,4.93-2.48,1.48-1.06,2.73-2.34,3.74-3.84,1.02-1.5,1.65-3.15,1.92-4.96h-8.47c-.71,1.41-1.75,2.51-3.14,3.28-1.39.77-2.92,1.16-4.6,1.16-2.16,0-4.05-.62-5.65-1.85-1.61-1.23-2.61-2.93-3.01-5.1h25.15v-3.04c-.04-2.38-.48-4.53-1.32-6.45-.84-1.92-1.98-3.55-3.41-4.9ZM1273.18,515.59c.75-1.41,1.82-2.52,3.21-3.34,1.39-.82,2.95-1.22,4.66-1.22s3.17.41,4.47,1.22c1.3.82,2.28,1.93,2.94,3.34h-15.29Z"/>
    <path class="cls-1" d="M1320.2,519.46c-1.3-.73-2.7-1.29-4.2-1.69s-2.9-.77-4.2-1.13c-1.3-.35-2.38-.75-3.24-1.19-.86-.44-1.29-1.06-1.29-1.85,0-.84.42-1.48,1.26-1.92.84-.44,1.9-.66,3.18-.66,2.65,0,4.21,1.41,4.7,4.24h8c-.04-1.81-.37-3.44-.99-4.9-.62-1.45-1.47-2.71-2.55-3.77-1.08-1.06-2.38-1.88-3.87-2.45-1.5-.57-3.17-.86-5.03-.86s-3.62.26-5.16.79c-1.55.53-2.87,1.26-3.97,2.18-1.1.93-1.95,2-2.55,3.21-.6,1.21-.89,2.53-.89,3.94,0,2.03.43,3.69,1.29,4.96.86,1.28,1.93,2.31,3.21,3.08,1.28.77,2.68,1.37,4.2,1.79,1.52.42,2.93.77,4.21,1.06,1.28.29,2.34.58,3.21.89.86.31,1.29.77,1.29,1.39,0,.75-.38,1.31-1.16,1.69-.77.37-1.78.56-3.01.56-1.54,0-2.84-.37-3.9-1.09-1.06-.73-1.68-1.76-1.86-3.08h-7.94c.05,1.63.4,3.18,1.06,4.63.66,1.46,1.59,2.73,2.78,3.8,1.19,1.08,2.61,1.93,4.27,2.55s3.48.93,5.46.93c3.84,0,6.84-.86,9-2.58s3.24-4.04,3.24-6.95c0-1.94-.43-3.51-1.29-4.7-.86-1.19-1.94-2.15-3.24-2.88Z"/>
    <path class="cls-1" d="M1347.2,527.14c-1.44,1.13-3.17,1.69-5.2,1.69-1.23,0-2.39-.21-3.48-.63-1.08-.42-2.02-1.01-2.81-1.79-.79-.77-1.42-1.71-1.88-2.81-.47-1.1-.7-2.34-.7-3.71s.23-2.59.7-3.67c.46-1.08,1.09-2.01,1.88-2.78.79-.77,1.73-1.37,2.81-1.79,1.08-.42,2.24-.63,3.48-.63,1.99,0,3.7.55,5.13,1.65,1.43,1.1,2.39,2.63,2.88,4.57l8.08-.13c-.18-1.98-.72-3.83-1.62-5.53-.9-1.7-2.07-3.15-3.51-4.37-1.44-1.21-3.09-2.17-4.96-2.88-1.88-.71-3.87-1.06-5.99-1.06-2.29,0-4.47.41-6.51,1.22-2.05.82-3.83,1.96-5.33,3.44-1.5,1.48-2.69,3.24-3.57,5.29-.89,2.05-1.33,4.29-1.33,6.72s.44,4.66,1.33,6.69c.88,2.03,2.07,3.78,3.57,5.26,1.5,1.48,3.28,2.62,5.33,3.44,2.05.82,4.22,1.22,6.51,1.22,2.07,0,4.05-.34,5.92-1.02,1.88-.68,3.54-1.65,5-2.91,1.46-1.26,2.65-2.75,3.57-4.47.93-1.72,1.48-3.64,1.65-5.76h-8c-.53,2.03-1.51,3.61-2.95,4.73Z"/>
    <path class="cls-1" d="M1363.31,493.82c-1.19,0-2.21.43-3.08,1.29-.86.86-1.29,1.89-1.29,3.08s.43,2.22,1.29,3.08c.86.86,1.89,1.29,3.08,1.29s2.21-.43,3.04-1.29c.84-.86,1.26-1.89,1.26-3.08s-.42-2.22-1.26-3.08c-.84-.86-1.85-1.29-3.04-1.29Z"/>
    <rect class="cls-1" x="1359.34" y="503.61" width="7.94" height="32.43"/>
    <path class="cls-1" d="M1418.5,507.15c-1.1-1.21-2.41-2.16-3.94-2.85-1.52-.68-3.19-1.03-4.99-1.03-2.52,0-4.73.56-6.65,1.69-1.92,1.13-3.56,2.77-4.93,4.93-1.02-2.03-2.46-3.64-4.34-4.83-1.87-1.19-4.02-1.79-6.45-1.79-4.06,0-7.37,1.45-9.92,4.37l-.66-4.04h-7.28v32.43h7.94v-20.51c.62-.88,1.32-1.65,2.12-2.32.71-.62,1.57-1.16,2.58-1.62,1.02-.46,2.16-.69,3.44-.69,1.99,0,3.53.63,4.63,1.89,1.1,1.26,1.65,3.28,1.65,6.06v17.21h7.94v-18.99c.48-1.81,1.43-3.29,2.85-4.43,1.41-1.15,3.17-1.72,5.29-1.72,1.99,0,3.53.63,4.63,1.89,1.1,1.26,1.65,3.28,1.65,6.06v17.21h7.94v-19.19c0-1.94-.31-3.74-.92-5.39-.62-1.65-1.48-3.09-2.58-4.3Z"/>
    <path class="cls-1" d="M1451.83,507.48c-1.43-1.34-3.14-2.38-5.13-3.11-1.98-.73-4.19-1.09-6.62-1.09-2.29,0-4.47.41-6.51,1.22-2.05.82-3.83,1.96-5.33,3.44-1.5,1.48-2.69,3.24-3.57,5.29-.88,2.05-1.32,4.29-1.32,6.72s.44,4.66,1.32,6.69c.88,2.03,2.07,3.78,3.57,5.26,1.5,1.48,3.27,2.62,5.33,3.44,2.05.82,4.22,1.22,6.51,1.22,1.95,0,3.82-.3,5.63-.89,1.81-.6,3.45-1.42,4.93-2.48,1.48-1.06,2.73-2.34,3.74-3.84,1.02-1.5,1.65-3.15,1.92-4.96h-8.47c-.71,1.41-1.75,2.51-3.14,3.28-1.39.77-2.92,1.16-4.6,1.16-2.16,0-4.05-.62-5.65-1.85-1.61-1.23-2.61-2.93-3.01-5.1h25.15v-3.04c-.04-2.38-.48-4.53-1.32-6.45-.83-1.92-1.98-3.55-3.41-4.9ZM1432.2,515.59c.75-1.41,1.82-2.52,3.21-3.34s2.95-1.22,4.66-1.22,3.17.41,4.47,1.22c1.3.82,2.28,1.93,2.94,3.34h-15.29Z"/>
    <path class="cls-1" d="M1485.68,507.15c-1.15-1.21-2.52-2.16-4.1-2.85-1.59-.68-3.33-1.03-5.23-1.03-4.32,0-7.83,1.55-10.52,4.63l-.66-4.3h-7.28v32.43h7.94v-20.51c.66-.88,1.43-1.65,2.31-2.32.75-.62,1.68-1.16,2.78-1.62,1.1-.46,2.36-.69,3.77-.69,2.2,0,3.89.63,5.03,1.89,1.15,1.26,1.72,3.28,1.72,6.06v17.21h7.87v-19.19c0-1.94-.32-3.74-.96-5.39-.64-1.65-1.54-3.09-2.68-4.3Z"/>
    <path class="cls-1" d="M1500.96,527.34c-.66-.73-1-1.98-1-3.74v-12.38h5.43v-7.61h-5.43v-7.08h-7.28l-.66,7.08h-1.98v7.61h1.98v12.38c0,4.01.97,7.09,2.92,9.23,1.94,2.14,4.74,3.21,8.4,3.21h2.38v-7.61h-1.32c-1.63,0-2.78-.37-3.44-1.09Z"/>
    <path class="cls-1" d="M1537.62,513.24c-.88-2.05-2.09-3.82-3.6-5.29-1.52-1.48-3.29-2.62-5.3-3.44-2.01-.81-4.16-1.22-6.45-1.22s-4.47.41-6.51,1.22c-2.05.82-3.83,1.96-5.33,3.44-1.5,1.48-2.69,3.24-3.57,5.29-.89,2.05-1.33,4.29-1.33,6.72s.44,4.66,1.33,6.69c.88,2.03,2.07,3.78,3.57,5.26,1.5,1.48,3.28,2.62,5.33,3.44,2.05.82,4.22,1.22,6.51,1.22s4.45-.41,6.45-1.22c2.01-.82,3.77-1.96,5.3-3.44,1.52-1.48,2.72-3.23,3.6-5.26.88-2.03,1.32-4.26,1.32-6.69s-.44-4.67-1.32-6.72ZM1530.31,523.6c-.46,1.1-1.09,2.04-1.88,2.81-.79.77-1.72,1.37-2.78,1.79-1.06.42-2.18.63-3.38.63s-2.39-.21-3.48-.63c-1.08-.42-2.02-1.01-2.81-1.79-.79-.77-1.42-1.71-1.88-2.81-.47-1.1-.69-2.34-.69-3.71s.23-2.59.69-3.67c.46-1.08,1.09-2.01,1.88-2.78.79-.77,1.73-1.37,2.81-1.79,1.08-.42,2.24-.63,3.48-.63s2.32.21,3.38.63c1.06.42,1.99,1.01,2.78,1.79.79.77,1.42,1.7,1.88,2.78.47,1.08.7,2.31.7,3.67s-.23,2.6-.7,3.71Z"/>
    <polygon class="cls-1" points="1065.52 554.53 1085.04 554.53 1085.04 547.25 1057.58 547.25 1057.58 588.94 1065.52 588.94 1065.52 573.72 1083.05 573.72 1083.05 566.44 1065.52 566.44 1065.52 554.53"/>
    <path class="cls-1" d="M1110.98,560.35c-1.37-1.37-2.91-2.4-4.63-3.11-1.72-.71-3.53-1.06-5.43-1.06-2.21,0-4.28.41-6.22,1.22-1.94.82-3.63,1.96-5.06,3.44-1.43,1.48-2.56,3.24-3.37,5.29-.82,2.05-1.22,4.29-1.22,6.72s.4,4.66,1.22,6.69c.81,2.03,1.94,3.78,3.37,5.26,1.44,1.48,3.12,2.62,5.06,3.44,1.94.82,4.01,1.22,6.22,1.22,1.89,0,3.71-.35,5.46-1.06,1.74-.71,3.3-1.76,4.67-3.18l.6,3.71h7.28v-32.43h-7.94v3.84ZM1110.25,576.57c-.49,1.1-1.14,2.05-1.96,2.85-.81.79-1.78,1.4-2.91,1.82-1.13.42-2.33.63-3.61.63s-2.4-.21-3.51-.63c-1.1-.42-2.06-1.02-2.88-1.82-.81-.8-1.45-1.74-1.92-2.85-.46-1.1-.7-2.34-.7-3.71s.23-2.67.7-3.77c.47-1.1,1.1-2.05,1.92-2.85.82-.8,1.78-1.4,2.88-1.82,1.1-.42,2.27-.63,3.51-.63s2.48.21,3.61.63,2.1,1.02,2.91,1.82c.82.79,1.47,1.74,1.96,2.85.48,1.1.73,2.36.73,3.77s-.24,2.6-.73,3.71Z"/>
    <path class="cls-1" d="M1142.25,580.04c-1.44,1.13-3.17,1.69-5.2,1.69-1.23,0-2.39-.21-3.48-.63-1.08-.42-2.02-1.01-2.81-1.79-.79-.77-1.42-1.71-1.88-2.81-.47-1.1-.7-2.34-.7-3.71s.23-2.59.7-3.67c.46-1.08,1.09-2.01,1.88-2.78.79-.77,1.73-1.37,2.81-1.79,1.08-.42,2.24-.63,3.48-.63,1.99,0,3.7.55,5.13,1.65,1.43,1.1,2.39,2.63,2.88,4.57l8.08-.13c-.18-1.98-.72-3.83-1.62-5.53-.9-1.7-2.07-3.15-3.51-4.37-1.44-1.21-3.09-2.17-4.96-2.88-1.88-.71-3.87-1.06-5.99-1.06-2.29,0-4.47.41-6.51,1.22-2.05.82-3.83,1.96-5.33,3.44-1.5,1.48-2.69,3.24-3.57,5.29-.89,2.05-1.33,4.29-1.33,6.72s.44,4.66,1.33,6.69c.88,2.03,2.07,3.78,3.57,5.26,1.5,1.48,3.28,2.62,5.33,3.44,2.05.82,4.22,1.22,6.51,1.22,2.07,0,4.05-.34,5.92-1.02,1.88-.68,3.54-1.65,5-2.91,1.46-1.26,2.65-2.75,3.57-4.47.93-1.72,1.48-3.64,1.65-5.76h-8c-.53,2.03-1.51,3.61-2.95,4.73Z"/>
    <path class="cls-1" d="M1158.36,546.72c-1.19,0-2.21.43-3.08,1.29-.86.86-1.29,1.89-1.29,3.08s.43,2.22,1.29,3.08c.86.86,1.89,1.29,3.08,1.29s2.21-.43,3.04-1.29c.84-.86,1.26-1.89,1.26-3.08s-.42-2.22-1.26-3.08c-.83-.86-1.85-1.29-3.04-1.29Z"/>
    <rect class="cls-1" x="1154.39" y="556.52" width="7.94" height="32.43"/>
    <path class="cls-1" d="M1190,560.35c-1.37-1.37-2.91-2.4-4.63-3.11-1.72-.71-3.53-1.06-5.43-1.06-2.21,0-4.28.41-6.22,1.22-1.94.82-3.63,1.96-5.06,3.44-1.43,1.48-2.56,3.24-3.37,5.29-.82,2.05-1.22,4.29-1.22,6.72s.4,4.66,1.22,6.69c.81,2.03,1.94,3.78,3.37,5.26,1.44,1.48,3.12,2.62,5.06,3.44,1.94.82,4.01,1.22,6.22,1.22,1.89,0,3.71-.35,5.46-1.06,1.74-.71,3.3-1.76,4.67-3.18l.6,3.71h7.28v-32.43h-7.94v3.84ZM1189.27,576.57c-.49,1.1-1.14,2.05-1.96,2.85-.81.79-1.78,1.4-2.91,1.82-1.13.42-2.33.63-3.61.63s-2.4-.21-3.51-.63c-1.1-.42-2.06-1.02-2.88-1.82-.81-.8-1.45-1.74-1.92-2.85-.46-1.1-.7-2.34-.7-3.71s.23-2.67.7-3.77c.47-1.1,1.1-2.05,1.92-2.85.82-.8,1.78-1.4,2.88-1.82,1.1-.42,2.27-.63,3.51-.63s2.48.21,3.61.63,2.1,1.02,2.91,1.82c.82.79,1.47,1.74,1.96,2.85.48,1.1.73,2.36.73,3.77s-.24,2.6-.73,3.71Z"/>
    <rect class="cls-1" x="1199.59" y="546.26" width="7.94" height="42.69"/>
  </g>
</svg>